<svg xmlns="http://www.w3.org/2000/svg" width="122" height="42" viewBox="0 0 122 42">
    <defs>
        <style>.a{fill:#0af;}.b{fill:#7a1dff;}.c{fill:none;stroke:#0af;stroke-miterlimit:10;}.d{fill:#f72163;}.e{fill:#fd5601;}.f{fill:#ffc208;}.g{fill:#9de411;}.h{fill:#172d42;}</style>
    </defs>
    <path class="a" d="M1278.333,450.234l-5.14,3.734,5.562,17.117,5.14-3.734Z" transform="translate(-1245.01 -430.517)" />
    <path class="b" d="M1267.364,465.673l-9.421,6.845-5.14-3.734,14.561-10.579,14.561,10.579-5.14,3.734Z" transform="translate(-1245.01 -430.517)" />
    <path class="c" d="M1246.973,443.39" transform="translate(-1245.01 -430.161)" />
    <path class="d" d="M1246.973,443.39l14.561,10.579-5.562,17.117-5.14-3.734,3.6-11.075-9.421-6.845Z" transform="translate(-1245.01 -430.517)" />
    <path class="c" d="M1287.754,443.39" transform="translate(-1245.01 -430.161)" />
    <path class="e" d="M1259.371,441.073l3.6-11.075h6.353l-5.562,17.117h-18l1.963-6.042Z" transform="translate(-1245.01 -429.998)" />
    <path class="f" d="M1275.356,441.073l-3.6-11.075H1265.4l5.562,17.117h18L1287,441.073Z" transform="translate(-1245.01 -429.998)" />
    <path class="g" d="M1288.965,447.115,1287,441.073l-19.637,14.267-8.246-5.991-1.963,6.042,10.209,7.418Z" transform="translate(-1245.01 -430.275)" />
    <g transform="translate(45.668 10.772)">
        <path class="h" d="M1299.118,444.83a7.78,7.78,0,0,0-7.888,7.888,7.95,7.95,0,0,0,8.13,8.069c3.475,0,6.528-2.236,7.374-4.9l-4.11-.695a3.824,3.824,0,0,1-3.234,1.632c-2.025,0-3.445-1.058-3.506-2.66h11.122V453.02A7.853,7.853,0,0,0,1299.118,444.83Zm-3.234,6.165c.061-1.148,1.542-2.206,3.234-2.206,1.753,0,3.083,1.027,3.2,2.206Z" transform="translate(-1291.23 -441.022)" />
        <path class="h" d="M1315.468,449.354l-3.113-4.1h-5.349v.242l5.621,7.284-5.138,7.344v.242h5.259l2.72-3.879,2.72,3.879h5.289v-.3l-5.077-7.283,5.591-7.284v-.242h-5.41Z" transform="translate(-1291.23 -441.022)" />
        <path class="h" d="M1331.032,441.022h-.936l-6.1,7.918v.423h2.327v2.206c0,5.894,4.533,9.006,9.671,9.006v-4.623c-2.63-.031-5.017-1.33-5.017-4.383v-2.206h5.017v-4.11h-4.957Z" transform="translate(-1291.23 -441.022)" />
        <path class="h" d="M1343.846,448.215h-.03v-2.962l-4.593-.03v15.141h4.593v-4.171a6.789,6.789,0,0,1,6.982-7.041l-1.451-4.231A6.637,6.637,0,0,0,1343.846,448.215Z" transform="translate(-1291.23 -441.022)" />
        <path class="h" d="M1363.188,445.182v1.452a6.428,6.428,0,0,0-4.648-1.847c-3.827,0-7.138,3.493-7.138,7.958,0,4.5,3.311,8.05,7.138,8.05a6.3,6.3,0,0,0,4.648-1.957v1.532h4.374V445.182Zm-3.463,11.421a3.843,3.843,0,0,1,0-7.685,3.537,3.537,0,0,1,3.463,3.827C1363.188,454.9,1361.821,456.6,1359.725,456.6Z" transform="translate(-1291.23 -441.022)" />
    </g>
</svg>